<svg width="756" height="240" viewBox="0 0 756 240" fill="none" xmlns="http://www.w3.org/2000/svg">
<g clip-path="url(#clip0_1048_2891)">
<path fill-rule="evenodd" clip-rule="evenodd" d="M253.635 225.734C240.979 221.786 222.624 219.347 202.201 219.434C187.064 219.498 146.892 228.466 133.065 239.377C146.892 250.171 187.064 258.798 202.201 258.734C223.392 258.644 242.356 255.854 255.038 251.534C217.437 293.412 254.436 326.868 264.664 347.81C263.285 319.209 284.615 282.012 311.735 260.057C322.895 251.023 335.553 243.926 349.063 238.768C333.394 233.639 318.713 225.978 305.984 215.781C279.939 194.918 258.578 159.324 258.816 131.835C246.66 154.201 217.623 186.419 253.635 225.734Z" fill="black" fill-opacity="0.1"/>
<path fill-rule="evenodd" clip-rule="evenodd" d="M501.909 254.765C514.565 258.655 532.919 261.009 553.341 260.827C568.478 260.693 608.649 251.538 622.476 240.563C608.649 229.833 568.478 221.392 553.341 221.527C532.151 221.715 513.188 224.593 500.506 228.972C538.105 186.919 501.108 153.636 490.88 132.741C492.259 161.336 470.93 198.631 443.811 220.712C432.651 229.798 419.993 236.954 406.484 242.175C422.153 247.231 436.833 254.824 449.562 264.962C475.605 285.703 496.966 321.198 496.728 348.689C508.884 326.266 537.92 293.913 501.909 254.765Z" fill="black" fill-opacity="0.1"/>
<path fill-rule="evenodd" clip-rule="evenodd" d="M365.171 122.449C361.465 109.796 359.378 91.4466 359.855 71.029C360.209 55.8955 369.946 15.7344 381.122 1.91065C391.651 15.7344 399.509 55.8955 399.155 71.029C398.66 92.2141 395.507 111.173 390.944 123.852C433.542 86.2611 466.289 123.249 487.036 133.475C458.461 132.097 420.856 153.421 398.382 180.534C389.134 191.69 381.794 204.346 376.378 217.852C371.549 202.187 364.169 187.51 354.216 174.784C333.852 148.747 298.667 127.391 271.173 127.628C293.771 115.476 326.545 86.447 365.171 122.449Z" fill="black" fill-opacity="0.1"/>
</g>
<defs>
<clipPath id="clip0_1048_2891">
<rect width="756" height="240" fill="white" transform="matrix(1 0 0 -1 0 240)"/>
</clipPath>
</defs>
</svg>
