<svg width="60" height="61" viewBox="0 0 60 61" fill="none" xmlns="http://www.w3.org/2000/svg">
<ellipse cx="30" cy="30.3041" rx="30" ry="30.3041" fill="#2187ED"/>
<path d="M31.9232 38.0352C35.5492 38.0352 37.3627 38.0352 38.4886 36.8968C39.6155 35.7595 39.6155 33.9276 39.6155 30.2649C39.6155 26.6022 39.6155 24.7703 38.4886 23.633C37.3627 22.4946 35.5492 22.4946 31.9232 22.4946H28.0771C24.4511 22.4946 22.6377 22.4946 21.5117 23.633C20.3848 24.7703 20.3848 26.6022 20.3848 30.2649C20.3848 33.9276 20.3848 35.7595 21.5117 36.8968C22.1396 37.532 22.9809 37.8127 24.2309 37.9361" stroke="white" stroke-width="1.87031" stroke-linecap="round" stroke-linejoin="round"/>
<path d="M31.9241 38.0351C30.7356 38.0351 29.426 38.5207 28.2308 39.1472C26.3097 40.1544 25.3491 40.6585 24.876 40.337C24.4029 40.0165 24.4924 39.0209 24.6722 37.0307L24.7126 36.5781" stroke="white" stroke-width="1.87031" stroke-linecap="round"/>
</svg>
