<svg width="50" height="50" viewBox="0 0 50 50" fill="none" xmlns="http://www.w3.org/2000/svg">
<circle cx="25" cy="25" r="25" fill="#2187ED"/>
<path d="M20.2639 16.837V20.2609H17V24.5H20.2639V37H26.8611V24.5H31.375C31.6528 23.1594 31.838 21.7464 31.9306 20.2609H26.9306V17.3804C26.9306 17.163 27.081 16.9366 27.3819 16.7011C27.6829 16.4656 28.0185 16.3478 28.3889 16.3478H32V12H27.0694C25.7731 12 24.6505 12.154 23.7014 12.462C22.7523 12.7699 22.0694 13.1141 21.6528 13.4946C21.2361 13.875 20.912 14.337 20.6806 14.8804C20.4491 15.4239 20.3218 15.8134 20.2986 16.0489C20.2755 16.2844 20.2639 16.5471 20.2639 16.837Z" fill="#D9D9D9"/>
</svg>
