<svg width="489" height="238" viewBox="0 0 489 238" fill="none" xmlns="http://www.w3.org/2000/svg">
<g clip-path="url(#clip0_1048_2891)">
<path fill-rule="evenodd" clip-rule="evenodd" d="M120.635 223.734C107.979 219.786 89.6243 217.347 69.2014 217.434C54.0638 217.498 13.8921 226.466 0.0646962 237.377C13.8921 248.171 54.0638 256.798 69.2014 256.734C90.392 256.644 109.356 253.854 122.038 249.534C84.4374 291.412 121.436 324.868 131.664 345.81C130.285 317.209 151.615 280.012 178.735 258.057C189.895 249.023 202.553 241.926 216.063 236.768C200.394 231.639 185.713 223.978 172.984 213.781C146.939 192.918 125.578 157.324 125.816 129.835C113.66 152.201 84.6234 184.419 120.635 223.734Z" fill="black" fill-opacity="0.1"/>
<path fill-rule="evenodd" clip-rule="evenodd" d="M368.909 252.765C381.565 256.655 399.919 259.009 420.341 258.827C435.478 258.693 475.649 249.538 489.476 238.563C475.649 227.833 435.478 219.392 420.341 219.527C399.151 219.715 380.188 222.593 367.506 226.972C405.105 184.919 368.108 151.636 357.88 130.741C359.259 159.336 337.93 196.631 310.811 218.712C299.651 227.798 286.993 234.954 273.484 240.175C289.153 245.231 303.833 252.824 316.562 262.962C342.605 283.703 363.966 319.198 363.728 346.689C375.884 324.266 404.92 291.913 368.909 252.765Z" fill="black" fill-opacity="0.1"/>
<path fill-rule="evenodd" clip-rule="evenodd" d="M232.171 120.449C228.465 107.796 226.378 89.4466 226.855 69.029C227.209 53.8955 236.946 13.7344 248.122 -0.0893533C258.651 13.7344 266.509 53.8955 266.155 69.029C265.66 90.2141 262.507 109.173 257.944 121.852C300.542 84.2611 333.289 121.249 354.036 131.475C325.461 130.097 287.856 151.421 265.382 178.534C256.134 189.69 248.794 202.346 243.378 215.852C238.549 200.187 231.169 185.51 221.216 172.784C200.852 146.747 165.667 125.391 138.173 125.628C160.771 113.476 193.545 84.447 232.171 120.449Z" fill="black" fill-opacity="0.1"/>
</g>
<defs>
<clipPath id="clip0_1048_2891">
<rect width="489" height="238" fill="white" transform="matrix(1 0 0 -1 0 238)"/>
</clipPath>
</defs>
</svg>
