<svg width="50" height="50" viewBox="0 0 50 50" fill="none" xmlns="http://www.w3.org/2000/svg">
<path d="M50 25C50 38.8071 38.8071 50 25 50C11.1929 50 0 38.8071 0 25C0 11.1929 11.1929 0 25 0C38.8071 0 50 11.1929 50 25Z" fill="#2187ED"/>
<path d="M25.4966 21.3316C23.2014 21.3316 21.3283 23.2047 21.3283 25.5C21.3283 27.7953 23.2014 29.6684 25.4966 29.6684C27.7919 29.6684 29.665 27.7953 29.665 25.5C29.665 23.2047 27.7919 21.3316 25.4966 21.3316ZM37.9986 25.5C37.9986 23.7738 38.0142 22.0633 37.9173 20.3403C37.8204 18.3389 37.3638 16.5627 35.9004 15.0992C34.4338 13.6326 32.6607 13.1792 30.6594 13.0822C28.9333 12.9853 27.2228 13.0009 25.4998 13.0009C23.7736 13.0009 22.0631 12.9853 20.3401 13.0822C18.3388 13.1792 16.5626 13.6357 15.0992 15.0992C13.6326 16.5658 13.1792 18.3389 13.0822 20.3403C12.9853 22.0664 13.0009 23.777 13.0009 25.5C13.0009 27.223 12.9853 28.9367 13.0822 30.6597C13.1792 32.6611 13.6357 34.4373 15.0992 35.9008C16.5658 37.3674 18.3388 37.8208 20.3401 37.9178C22.0663 38.0147 23.7768 37.9991 25.4998 37.9991C27.2259 37.9991 28.9364 38.0147 30.6594 37.9178C32.6607 37.8208 34.4369 37.3643 35.9004 35.9008C37.3669 34.4342 37.8204 32.6611 37.9173 30.6597C38.0174 28.9367 37.9986 27.2262 37.9986 25.5V25.5ZM25.4966 31.9137C21.9474 31.9137 19.0831 29.0493 19.0831 25.5C19.0831 21.9507 21.9474 19.0863 25.4966 19.0863C29.0458 19.0863 31.9102 21.9507 31.9102 25.5C31.9102 29.0493 29.0458 31.9137 25.4966 31.9137ZM32.1729 20.3215C31.3442 20.3215 30.675 19.6523 30.675 18.8236C30.675 17.9949 31.3442 17.3257 32.1729 17.3257C33.0016 17.3257 33.6708 17.9949 33.6708 18.8236C33.671 19.0204 33.6324 19.2153 33.5572 19.3971C33.4821 19.579 33.3717 19.7442 33.2326 19.8833C33.0935 20.0225 32.9282 20.1328 32.7464 20.208C32.5646 20.2832 32.3697 20.3217 32.1729 20.3215V20.3215Z" fill="#D9D9D9"/>
</svg>
