<svg width="15" height="15" viewBox="0 0 22 22" fill="none" xmlns="http://www.w3.org/2000/svg">
<g clip-path="url(#clip0_1066_1928)">
<path d="M13.0743 21.9945C6.82591 21.9945 6.77781 21.7354 6.00403 21.1527C5.59359 20.844 4.81914 20.6302 1.99042 20.4459C1.78521 20.4325 1.58996 20.3538 1.45901 20.195C1.39885 20.1218 -0.0146484 18.0603 -0.0146484 14.7586C-0.0146484 11.505 0.997008 10.022 1.0403 9.9533C1.10202 9.85442 1.18788 9.77287 1.28982 9.71634C1.39175 9.65981 1.5064 9.63016 1.62296 9.63017C3.94567 9.63017 7.16558 6.66533 9.33017 1.48983C9.70452 0.594703 9.78186 0.00585938 11.1569 0.00585938C11.9389 0.00585938 12.8155 0.565828 13.2482 1.28429C14.1361 2.7521 13.6851 5.90465 13.2682 7.58937C14.6861 7.57803 17.2529 7.55876 18.4742 7.55876C20.1731 7.55876 21.2974 8.57179 21.3315 10.0527C21.3428 10.5415 21.2785 11.1657 21.1373 11.4888C21.5113 11.8618 21.9936 12.4242 22.0145 13.1485C22.0406 14.0835 21.4284 14.7954 21.0376 15.2037C21.1273 15.4756 21.3067 15.8362 21.2892 16.2673C21.2462 17.3274 20.4277 18.0105 19.918 18.3669C19.9602 18.657 19.9932 19.2043 19.9001 19.6275C19.5323 21.3163 17.0555 21.9945 13.0742 21.9945L13.0743 21.9945ZM2.35512 19.0517C4.81912 19.2556 6.13633 19.5316 6.83105 20.0544C7.36867 20.4594 7.28583 20.6199 13.0742 20.6199C14.8397 20.6199 18.2927 20.5463 18.5574 19.3343C18.6626 18.8496 18.1514 18.3732 18.1497 18.3694C18.0101 18.025 18.1655 17.6207 18.5059 17.4718C18.5113 17.4691 19.8839 16.9775 19.9152 16.2103C19.9359 15.7198 19.599 15.4252 19.5914 15.4128C19.391 15.102 19.4642 14.6758 19.7681 14.464C19.7715 14.4613 20.6608 13.9223 20.6391 13.1874C20.6223 12.6037 19.8533 12.1929 19.83 12.1791C19.6581 12.0808 19.533 11.9107 19.4938 11.7161C19.4553 11.5219 19.4986 11.318 19.6192 11.1603C19.6192 11.1603 19.9688 10.6048 19.9561 10.0836C19.931 8.96817 18.7314 8.93311 18.4739 8.93311C16.7396 8.93311 12.2857 8.95064 12.2857 8.95064C12.0454 8.95167 11.8375 8.83824 11.7082 8.64608C11.5793 8.4539 11.5697 8.21536 11.6453 7.99674C12.317 6.06246 12.692 3.02783 12.0691 1.99108C11.8856 1.68549 11.8436 1.38024 11.1561 1.38024C11.0609 1.38024 10.8341 1.45552 10.5976 2.01927C8.30028 7.51583 4.86897 10.6952 2.05846 10.9819C1.81612 11.5346 1.36031 12.68 1.36031 14.7583C1.36031 16.8796 2.03232 18.5206 2.35512 19.0517Z" fill="#004581"/>
</g>
<defs>
<clipPath id="clip0_1066_1928">
<rect width="22" height="22" fill="white"/>
</clipPath>
</defs>
</svg>
