<svg width="23" height="23" viewBox="0 0 23 23" fill="none" xmlns="http://www.w3.org/2000/svg">
<path d="M6.45398 21.5209L6.45421 21.521C6.49586 21.5525 6.53327 21.5811 6.56769 21.6074C6.71214 21.718 6.80385 21.7882 6.93496 21.8544C7.08767 21.9314 7.30966 22.0077 7.72434 22.072C8.57108 22.2032 10.1062 22.269 13.2332 22.269C15.2048 22.269 16.7584 22.0995 17.849 21.7418C18.9429 21.383 19.4608 20.8766 19.5928 20.2689L19.5931 20.2679C19.6687 19.9237 19.6435 19.44 19.6049 19.1744L19.5634 18.8894L19.7993 18.7241C20.2987 18.3743 20.9366 17.807 20.9697 16.9875L20.9697 16.9874C20.9796 16.7454 20.9099 16.5556 20.8253 16.3252C20.7982 16.2515 20.7696 16.1736 20.7416 16.0885L20.6538 15.8221L20.8476 15.6193C21.2359 15.2128 21.714 14.6259 21.6939 13.8994L6.45398 21.5209ZM6.45398 21.5209C6.16767 21.3051 5.79229 21.1562 5.16259 21.0349M6.45398 21.5209L5.16259 21.0349M1.61249 10.9364L1.61151 10.9379C1.61134 10.9382 1.61089 10.9389 1.61018 10.9399C1.56897 11.0015 0.629687 12.4053 0.629687 15.4969C0.629687 17.0815 0.968219 18.366 1.31186 19.2601C1.63206 20.0932 1.95018 20.5715 1.99111 20.6331C1.99436 20.638 1.99586 20.6402 1.99547 20.6398C2.02519 20.6754 2.08599 20.7134 2.1949 20.7206L1.61249 10.9364ZM1.61249 10.9364C1.63219 10.9047 1.65954 10.8788 1.69189 10.8608C1.72424 10.8428 1.76056 10.8334 1.79743 10.8334H1.79749M1.61249 10.9364L1.79749 10.8334M1.79749 10.8334C3.14222 10.8334 4.63969 9.98745 6.03867 8.56302C7.45216 7.12379 8.82662 5.03427 9.92571 2.40143L9.92572 2.40142M1.79749 10.8334L9.92572 2.40142M9.92572 2.40142C9.97191 2.29075 10.0089 2.19743 10.0425 2.11263C10.0865 2.00132 10.1248 1.90471 10.1705 1.80286C10.2435 1.64019 10.3067 1.5349 10.3762 1.45908C10.4881 1.33712 10.6951 1.20415 11.3184 1.20415C11.9072 1.20415 12.643 1.65253 13.0062 2.25659L13.0067 2.25734M9.92572 2.40142L13.0067 2.25734M13.0067 2.25734C13.3728 2.86378 13.4918 3.89568 13.4385 5.06719C13.3863 6.21266 13.1756 7.39155 12.9729 8.21185L12.8285 8.79638M13.0067 2.25734L12.8285 8.79638M12.8285 8.79638L13.4306 8.79155M12.8285 8.79638L13.4306 8.79155M13.4306 8.79155C14.8473 8.7802 17.4085 8.76094 18.6259 8.76094C19.3816 8.76094 19.9698 8.98581 20.3666 9.33593C20.7596 9.68273 20.9975 10.1803 21.0117 10.7993L21.0117 10.7994M13.4306 8.79155L21.0117 10.7994M21.0117 10.7994C21.0169 11.0213 21.0048 11.2767 20.9754 11.5111C20.945 11.7543 20.9003 11.9386 20.8567 12.0385L20.7291 12.3308M21.0117 10.7994L20.7291 12.3308M20.7291 12.3308L20.9548 12.5562M20.7291 12.3308L20.9548 12.5562M20.9548 12.5562C21.3222 12.9233 21.6785 13.3714 21.6939 13.899L20.9548 12.5562ZM2.25251 20.2385L2.12889 20.0348C1.7624 19.4306 1.06762 17.7049 1.06762 15.4966C1.06762 13.3385 1.54254 12.1283 1.80404 11.5308L1.91343 11.2808L2.18486 11.2531C3.4402 11.1248 4.9035 10.3365 6.35506 8.86138C7.79994 7.39304 9.19977 5.27634 10.3283 2.571L10.3286 2.57042C10.5888 1.94895 10.9338 1.64408 11.3177 1.64408C11.7306 1.64408 12.049 1.73741 12.2863 1.96546C12.394 2.06895 12.4642 2.18131 12.5134 2.26849C12.5449 2.32432 12.5618 2.35691 12.5761 2.38443C12.592 2.41501 12.6047 2.43933 12.6305 2.48234C12.6305 2.48235 12.6305 2.48237 12.6305 2.48238L12.2295 2.72282L2.25251 20.2385ZM2.25251 20.2385L2.49003 20.2582M2.25251 20.2385L2.49003 20.2582M2.49003 20.2582C3.71388 20.3597 4.63307 20.4777 5.32519 20.6307C6.02134 20.7847 6.44793 20.966 6.71685 21.1687C6.73394 21.1816 6.75237 21.196 6.7722 21.2115C6.87289 21.2901 7.00973 21.397 7.19238 21.4803C7.41432 21.5814 7.68993 21.6468 8.09465 21.6946C8.89642 21.7893 10.3505 21.8288 13.2332 21.8288C14.1152 21.8288 15.4496 21.8109 16.6035 21.6351C17.1778 21.5476 17.7383 21.4167 18.1842 21.2127C18.615 21.0158 19.0518 20.6971 19.1657 20.1745L19.1659 20.1739M2.49003 20.2582L19.1659 20.1739M19.1659 20.1739C19.2579 19.7492 19.0763 19.3752 18.9399 19.1608C18.8661 19.0449 18.7895 18.9504 18.7319 18.8849C18.7276 18.8801 18.7234 18.8753 18.7193 18.8707C18.7088 18.7707 18.7643 18.6752 18.8451 18.6398L18.8564 18.6349M19.1659 20.1739L18.8564 18.6349M18.8564 18.6349L18.8674 18.6293L18.8564 18.6349ZM20.1189 15.8699C20.1284 15.8801 20.1391 15.8919 20.1506 15.9051C20.1965 15.9578 20.2558 16.033 20.314 16.1293C20.4303 16.3219 20.547 16.6083 20.5321 16.9684C20.5321 16.9686 20.532 16.9687 20.532 16.9689L20.0649 16.9493L20.1189 15.8699ZM20.1189 15.8699C20.0698 15.7645 20.1063 15.641 20.1856 15.5856L20.1983 15.5767L20.2104 15.5671C20.1451 15.6194 20.4549 15.4149 20.6983 15.1634C20.9469 14.9064 21.2716 14.4697 21.2552 13.9111M20.1189 15.8699L21.2552 13.9111M21.2552 13.9111C21.2552 13.9112 21.2552 13.9113 21.2552 13.9114L20.7878 13.9249L21.2552 13.9111ZM21.2552 13.9111C21.241 13.4215 20.9219 13.0599 20.6992 12.8592C20.5783 12.7504 20.4594 12.6652 20.3701 12.6065C20.2871 12.5521 20.2185 12.5138 20.2164 12.5128M21.2552 13.9111L20.2164 12.5128M19.7693 11.8967C20.1652 12.1454 20.1653 12.1454 20.1653 12.1453L20.1655 12.1451L20.1657 12.1447L20.1663 12.1437L20.168 12.141L20.1727 12.1334L20.1875 12.1086C20.1995 12.088 20.2159 12.0594 20.2351 12.0239C20.2732 11.9532 20.3235 11.8536 20.3734 11.7346C20.4692 11.5065 20.5817 11.1658 20.5732 10.8087M19.7693 11.8967L20.5732 10.809C20.5732 10.8089 20.5732 10.8088 20.5732 10.8087M19.7693 11.8967L20.1652 12.1454L20.1539 12.1635L20.141 12.1804C20.1061 12.2261 20.089 12.292 20.1025 12.3613C20.1147 12.4207 20.1552 12.4778 20.2122 12.5104L20.2164 12.5128M19.7693 11.8967L20.2164 12.5128M20.5732 10.8087C20.5648 10.441 20.4575 10.1335 20.2744 9.88878M20.5732 10.8087L20.2744 9.88878M5.16259 21.0349C4.53486 20.914 3.6112 20.813 2.19499 20.7206L5.16259 21.0349ZM20.2744 9.88878C20.0947 9.64854 19.8622 9.49549 19.642 9.39794M20.2744 9.88878L19.642 9.39794M19.642 9.39794C19.2135 9.20817 18.7672 9.20084 18.6255 9.20084M19.642 9.39794L18.6255 9.20084M18.6255 9.20084C17.7586 9.20084 16.2129 9.20523 14.8846 9.20961M18.6255 9.20084L14.8846 9.20961M14.8846 9.20961C14.2203 9.21181 13.6101 9.214 13.166 9.21564M14.8846 9.20961L13.166 9.21564M13.166 9.21564L12.6384 9.21763M13.166 9.21564L12.6384 9.21763M12.6384 9.21763L12.4943 9.21819M12.6384 9.21763L12.4943 9.21819M12.4943 9.21819L12.4567 9.21834M12.4943 9.21819L12.4567 9.21834M12.4567 9.21834L12.4471 9.21837M12.4567 9.21834L12.4471 9.21837M12.4471 9.21837L12.4447 9.21838M12.4471 9.21837L12.4447 9.21838M12.4447 9.21838L12.4441 9.21839M12.4447 9.21838L12.4441 9.21839M12.4441 9.21839H12.4439M12.4441 9.21839H12.4439M12.4439 9.21839L12.4457 9.68596L12.4439 9.21839ZM20.0821 15.8313C20.0817 15.831 20.0818 15.831 20.0822 15.8314L20.0821 15.8313Z" fill="#004581" fill-opacity="0.55" stroke="#004581" stroke-width="0.935156"/>
</svg>
