<svg width="50" height="50" viewBox="0 0 50 50" fill="none" xmlns="http://www.w3.org/2000/svg">
<circle cx="25" cy="25" r="25" fill="#2187ED"/>
<path d="M37 33.25V16.75C37 15.2283 36.0153 14 34.7954 14H14.2046C12.9847 14 12 15.2283 12 16.75V33.25C12 34.7717 12.9847 36 14.2046 36H34.7954C36.0153 36 37 34.7717 37 33.25ZM35.0747 16.5483C35.5597 17.1533 35.2951 17.7767 35.0306 18.0883L29.0635 24.9083L34.7954 32.3517C34.9718 32.6083 35.0894 33.0117 34.8836 33.2867C34.6925 33.58 34.2516 33.5617 34.0606 33.3783L27.6379 26.54L24.4927 30.115L21.3621 26.54L14.9394 33.3783C14.7484 33.5617 14.3075 33.58 14.1164 33.2867C13.9106 33.0117 14.0282 32.6083 14.2046 32.3517L19.9365 24.9083L13.9694 18.0883C13.7049 17.7767 13.4403 17.1533 13.9253 16.5483C14.4103 15.9433 14.9101 16.2367 15.3216 16.6767L24.4927 25.9167L33.6784 16.6767C34.0899 16.2367 34.5897 15.9433 35.0747 16.5483Z" fill="#D9D9D9"/>
</svg>
