<svg width="572" height="275" viewBox="0 0 572 275" fill="none" xmlns="http://www.w3.org/2000/svg">
<g clip-path="url(#clip0_1014_2310)">
<rect width="572" height="275" fill="white"/>
<path fill-rule="evenodd" clip-rule="evenodd" d="M298.467 127.06C303.71 114.069 307.035 95.1691 307.089 74.0883C307.128 58.4632 295.779 16.8375 281.686 2.36732C267.52 16.4428 255.961 57.7484 255.921 73.3736C255.866 95.2468 259.344 114.871 264.866 128.039C210.648 88.4685 166.789 126.047 139.44 136.223C176.689 135.321 224.944 158.012 253.307 186.403C264.978 198.085 274.116 211.28 280.722 225.317C287.526 209.238 297.62 194.225 311 181.272C338.374 154.77 384.89 133.37 420.678 134.115C391.657 121.162 349.947 90.6064 298.467 127.06Z" fill="#004581" fill-opacity="0.08"/>
<path fill-rule="evenodd" clip-rule="evenodd" d="M430.472 290.45C443.7 295.4 462.753 298.303 483.839 297.89C499.469 297.584 540.591 285.327 554.431 270.93C539.717 257.092 497.885 246.46 482.256 246.766C460.377 247.195 440.906 251.102 427.983 256.91C465.125 201.878 425.57 158.902 414.164 131.81C416.74 168.996 396.212 217.697 369.091 246.655C357.931 258.572 345.144 267.99 331.401 274.899C347.789 281.34 363.257 291.09 376.814 304.168C404.55 330.924 428.043 376.912 428.905 412.675C440.557 383.402 469.244 341.064 430.472 290.45Z" fill="#004581" fill-opacity="0.08"/>
<path fill-rule="evenodd" clip-rule="evenodd" d="M142.236 256.505C129.147 251.202 110.185 247.789 89.1003 247.638C73.4726 247.526 32.0487 258.681 17.8335 272.707C32.1687 286.937 73.6899 298.688 89.3176 298.8C111.194 298.957 130.757 295.57 143.827 290.109C105.239 344.142 143.621 388.173 154.297 415.569C152.715 378.317 174.53 330.169 202.408 301.939C213.879 290.322 226.909 281.246 240.828 274.706C224.623 267.827 209.424 257.664 196.225 244.224C169.222 216.728 146.971 170.115 147.065 134.331C134.639 163.291 104.84 204.858 142.236 256.505Z" fill="#004581" fill-opacity="0.08"/>
</g>
<defs>
<clipPath id="clip0_1014_2310">
<rect width="572" height="275" fill="white"/>
</clipPath>
</defs>
</svg>
