<svg width="479" height="479" viewBox="0 0 479 479" fill="none" xmlns="http://www.w3.org/2000/svg">
<g clip-path="url(#clip0_301_2)">
<path fill-rule="evenodd" clip-rule="evenodd" d="M247.886 110.344C252.434 99.1568 255.257 82.8556 255.183 64.6514C255.129 51.1584 244.884 15.1441 232.377 2.56359C219.969 14.6335 210.015 50.234 210.07 63.727C210.146 82.6155 213.325 99.5829 218.269 110.988C170.242 76.4906 131.792 108.679 107.739 117.302C140.573 116.746 183.245 136.631 208.414 161.319C218.77 171.477 226.901 182.926 232.806 195.088C238.712 181.244 247.525 168.34 259.247 157.234C283.228 134.513 324.114 116.311 355.669 117.17C330.01 105.81 293.062 79.1729 247.886 110.344Z" fill="#004581" fill-opacity="0.08"/>
<path fill-rule="evenodd" clip-rule="evenodd" d="M222.873 370.008C218.618 381.245 216.067 397.58 216.315 415.79C216.499 429.287 226.68 465.213 238.805 477.674C250.594 465.477 259.799 429.765 259.616 416.268C259.358 397.373 256.143 380.431 251.288 369.072C297.71 403.105 334.294 370.525 357.292 361.661C325.79 362.542 284.648 343.072 260.256 318.625C250.219 308.565 242.304 297.193 236.52 285.085C230.987 298.993 222.656 311.988 211.516 323.214C188.724 346.181 149.667 364.793 119.378 364.247C144.111 375.357 179.825 401.638 222.873 370.008Z" fill="#004581" fill-opacity="0.08"/>
<path fill-rule="evenodd" clip-rule="evenodd" d="M365.22 252.141C376.912 256.49 393.725 259.106 412.313 258.869C426.091 258.693 462.274 248.343 474.391 235.988C461.339 223.955 424.398 214.536 410.621 214.711C391.334 214.957 374.191 218.221 362.832 223.162C395.257 175.851 360.136 138.514 349.923 115.053C352.41 147.18 334.595 189.119 310.852 213.973C301.082 224.199 289.864 232.26 277.788 238.148C292.273 243.803 305.967 252.311 317.995 263.682C342.602 286.945 363.581 326.792 364.548 357.68C374.651 332.467 399.696 296.069 365.22 252.141Z" fill="#004581" fill-opacity="0.08"/>
<path fill-rule="evenodd" clip-rule="evenodd" d="M110.91 221.189C99.3408 216.534 82.6032 213.48 64.0141 213.229C50.2358 213.043 13.7806 222.441 1.32962 234.472C14.0503 246.843 50.7241 257.226 64.5024 257.412C83.7903 257.672 101.018 254.858 112.508 250.217C78.8021 296.658 112.896 334.9 122.466 358.618C120.856 326.44 139.809 284.985 164.223 260.765C174.269 250.799 185.703 243.035 197.936 237.466C183.61 231.434 170.151 222.571 158.437 210.89C134.471 186.992 114.584 146.612 114.459 115.712C103.672 140.649 77.6419 176.376 110.91 221.189Z" fill="#004581" fill-opacity="0.08"/>
</g>
<defs>
<clipPath id="clip0_301_2">
<rect width="479" height="479" fill="white"/>
</clipPath>
</defs>
</svg>
