<svg width="28" height="28" viewBox="0 0 28 28" fill="none" xmlns="http://www.w3.org/2000/svg">
<path d="M27.9996 26.586L20.4476 19.034C22.2624 16.8553 23.1674 14.0608 22.9743 11.2319C22.7812 8.40296 21.5049 5.75738 19.4109 3.84551C17.3169 1.93363 14.5664 0.902668 11.7316 0.96708C8.8968 1.03149 6.19598 2.18632 4.19097 4.19133C2.18596 6.19635 1.03112 8.89717 0.966713 11.732C0.902302 14.5667 1.93327 17.3172 3.84514 19.4112C5.75702 21.5052 8.4026 22.7816 11.2315 22.9747C14.0605 23.1678 16.8549 22.2628 19.0336 20.448L26.5856 28L27.9996 26.586ZM2.99963 12C2.99963 10.22 3.52747 8.4799 4.5164 6.99986C5.50533 5.51982 6.91094 4.36627 8.55548 3.68508C10.2 3.00389 12.0096 2.82566 13.7554 3.17293C15.5013 3.52019 17.1049 4.37736 18.3636 5.63603C19.6223 6.89471 20.4794 8.49835 20.8267 10.2442C21.174 11.99 20.9957 13.7996 20.3145 15.4441C19.6334 17.0887 18.4798 18.4943 16.9998 19.4832C15.5197 20.4722 13.7797 21 11.9996 21C9.61349 20.9973 7.32584 20.0483 5.63859 18.361C3.95134 16.6738 3.00227 14.3861 2.99963 12Z" fill="#7A7676" fill-opacity="0.85"/>
</svg>
