<svg width="20" height="20" viewBox="0 0 20 20" fill="none" xmlns="http://www.w3.org/2000/svg">
<mask id="path-1-inside-1_1014_468" fill="white">
<path d="M20 18.2692L14.0346 12.3029C14.996 10.9818 15.5131 9.38962 15.5115 7.75577C15.5115 3.47933 12.0322 0 7.75577 0C3.47933 0 0 3.47933 0 7.75577C0 12.0322 3.47933 15.5115 7.75577 15.5115C9.38962 15.5131 10.9818 14.996 12.3029 14.0346L18.2692 20L20 18.2692ZM7.75577 13.062C6.70616 13.0621 5.68009 12.7509 4.80733 12.1679C3.93457 11.5848 3.25431 10.756 2.8526 9.78631C2.45089 8.81661 2.34576 7.74956 2.5505 6.72011C2.75525 5.69066 3.26067 4.74505 4.00286 4.00286C4.74505 3.26067 5.69066 2.75525 6.72011 2.5505C7.74956 2.34576 8.81661 2.45089 9.78631 2.8526C10.756 3.25431 11.5848 3.93457 12.1679 4.80733C12.7509 5.68009 13.0621 6.70616 13.062 7.75577C13.0604 9.16257 12.5008 10.5113 11.506 11.506C10.5113 12.5008 9.16257 13.0604 7.75577 13.062Z"/>
</mask>
<path d="M20 18.2692L14.0346 12.3029C14.996 10.9818 15.5131 9.38962 15.5115 7.75577C15.5115 3.47933 12.0322 0 7.75577 0C3.47933 0 0 3.47933 0 7.75577C0 12.0322 3.47933 15.5115 7.75577 15.5115C9.38962 15.5131 10.9818 14.996 12.3029 14.0346L18.2692 20L20 18.2692ZM7.75577 13.062C6.70616 13.0621 5.68009 12.7509 4.80733 12.1679C3.93457 11.5848 3.25431 10.756 2.8526 9.78631C2.45089 8.81661 2.34576 7.74956 2.5505 6.72011C2.75525 5.69066 3.26067 4.74505 4.00286 4.00286C4.74505 3.26067 5.69066 2.75525 6.72011 2.5505C7.74956 2.34576 8.81661 2.45089 9.78631 2.8526C10.756 3.25431 11.5848 3.93457 12.1679 4.80733C12.7509 5.68009 13.0621 6.70616 13.062 7.75577C13.0604 9.16257 12.5008 10.5113 11.506 11.506C10.5113 12.5008 9.16257 13.0604 7.75577 13.062Z" fill="white"/>
<path d="M20 18.2692L23.5355 21.8048L27.0708 18.2695L23.5358 14.734L20 18.2692ZM14.0346 12.3029L9.99175 9.36091L7.47735 12.8162L10.4988 15.8381L14.0346 12.3029ZM15.5115 7.75577H10.5115L10.5115 7.76058L15.5115 7.75577ZM7.75577 15.5115L7.76058 10.5115H7.75577V15.5115ZM12.3029 14.0346L15.8381 10.4988L12.8162 7.47735L9.36091 9.99175L12.3029 14.0346ZM18.2692 20L14.734 23.5358L18.2695 27.0708L21.8048 23.5355L18.2692 20ZM7.75577 13.062L7.75622 18.062L7.76165 18.062L7.75577 13.062ZM13.062 7.75577L18.062 7.76165V7.75622L13.062 7.75577ZM23.5358 14.734L17.5704 8.76764L10.4988 15.8381L16.4642 21.8045L23.5358 14.734ZM18.0775 15.2449C19.6618 13.0676 20.5141 10.4436 20.5115 7.75096L10.5115 7.76058C10.5121 8.3356 10.3301 8.89596 9.99175 9.36091L18.0775 15.2449ZM20.5115 7.75577C20.5115 0.717904 14.7936 -5 7.75577 -5V5C9.27079 5 10.5115 6.24075 10.5115 7.75577H20.5115ZM7.75577 -5C0.717904 -5 -5 0.717904 -5 7.75577H5C5 6.24075 6.24075 5 7.75577 5V-5ZM-5 7.75577C-5 14.7936 0.717904 20.5115 7.75577 20.5115V10.5115C6.24075 10.5115 5 9.27079 5 7.75577H-5ZM7.75096 20.5115C10.4436 20.5141 13.0676 19.6618 15.2449 18.0775L9.36091 9.99175C8.89596 10.3301 8.3356 10.5121 7.76058 10.5115L7.75096 20.5115ZM8.76764 17.5704L14.734 23.5358L21.8045 16.4642L15.8381 10.4988L8.76764 17.5704ZM21.8048 23.5355L23.5355 21.8048L16.4645 14.7337L14.7337 16.4645L21.8048 23.5355ZM7.75532 8.06202C7.69465 8.06203 7.63534 8.04404 7.5849 8.01034L2.02976 16.3254C3.72484 17.4579 5.71767 18.0622 7.75622 18.062L7.75532 8.06202ZM7.5849 8.01034C7.53445 7.97664 7.49513 7.92873 7.47191 7.87268L-1.76671 11.6999C-0.986502 13.5833 0.334683 15.193 2.02976 16.3254L7.5849 8.01034ZM7.47191 7.87268C7.44869 7.81663 7.44262 7.75496 7.45445 7.69546L-2.35345 5.74477C-2.7511 7.74417 -2.54692 9.81659 -1.76671 11.6999L7.47191 7.87268ZM7.45445 7.69546C7.46628 7.63595 7.4955 7.58129 7.5384 7.5384L0.467329 0.467329C-0.97415 1.90881 -1.95579 3.74538 -2.35345 5.74477L7.45445 7.69546ZM7.5384 7.5384C7.58129 7.4955 7.63595 7.46628 7.69546 7.45445L5.74477 -2.35345C3.74538 -1.95579 1.90881 -0.97415 0.467329 0.467329L7.5384 7.5384ZM7.69546 7.45445C7.75496 7.44262 7.81663 7.44869 7.87268 7.47191L11.6999 -1.76671C9.81659 -2.54692 7.74417 -2.7511 5.74477 -2.35345L7.69546 7.45445ZM7.87268 7.47191C7.92873 7.49513 7.97664 7.53445 8.01034 7.5849L16.3254 2.02976C15.193 0.334683 13.5833 -0.986502 11.6999 -1.76671L7.87268 7.47191ZM8.01034 7.5849C8.04404 7.63534 8.06203 7.69465 8.06202 7.75532L18.062 7.75622C18.0622 5.71767 17.4579 3.72484 16.3254 2.02976L8.01034 7.5849ZM8.06202 7.74989C8.06193 7.83264 8.02901 7.91198 7.97049 7.97049L15.0416 15.0416C16.9726 13.1106 18.0588 10.4925 18.062 7.76165L8.06202 7.74989ZM7.97049 7.97049C7.91198 8.02901 7.83264 8.06193 7.74989 8.06202L7.76165 18.062C10.4925 18.0588 13.1106 16.9726 15.0416 15.0416L7.97049 7.97049Z" fill="white" mask="url(#path-1-inside-1_1014_468)"/>
</svg>
