<svg width="24" height="24" viewBox="0 0 24 24" fill="none" xmlns="http://www.w3.org/2000/svg">
<g clip-path="url(#clip0_302_548)">
<path d="M20.0858 1.49742C19.512 1.49742 18.9617 1.72767 18.556 2.13751C18.1503 2.54735 17.9223 3.10321 17.9223 3.68281C17.9223 4.26241 18.1503 4.81827 18.556 5.22811C18.9617 5.63795 19.512 5.8682 20.0858 5.8682C20.6596 5.8682 21.2099 5.63795 21.6156 5.22811C22.0213 4.81827 22.2493 4.26241 22.2493 3.68281C22.2493 3.10321 22.0213 2.54735 21.6156 2.13751C21.2099 1.72767 20.6596 1.49742 20.0858 1.49742ZM16.48 3.68281C16.4799 2.82823 16.7773 2.00081 17.3201 1.34534C17.863 0.689858 18.6167 0.248055 19.4494 0.0972251C20.2821 -0.0536052 21.1408 0.0961415 21.8753 0.520266C22.6098 0.94439 23.1732 1.61588 23.4671 2.41726C23.7609 3.21864 23.7665 4.09888 23.4827 4.90397C23.199 5.70905 22.644 6.38772 21.9149 6.82124C21.1859 7.25475 20.3291 7.41551 19.4945 7.27537C18.66 7.13524 17.9008 6.70315 17.3497 6.05469L7.66032 10.6003C7.88307 11.3134 7.88307 12.0784 7.66032 12.7915L17.3497 17.3371C17.9322 16.6528 18.7454 16.2114 19.6317 16.0982C20.5181 15.9851 21.4145 16.2084 22.1471 16.7248C22.8798 17.2412 23.3966 18.0139 23.5973 18.8933C23.7981 19.7727 23.6685 20.696 23.2338 21.4844C22.799 22.2727 22.09 22.87 21.2441 23.1604C20.3982 23.4508 19.4757 23.4136 18.6554 23.0562C17.8351 22.6987 17.1754 22.0463 16.8041 21.2255C16.4329 20.4046 16.3765 19.4738 16.6459 18.6134L6.95647 14.0678C6.47681 14.6324 5.83745 15.0352 5.12442 15.2218C4.41138 15.4084 3.65887 15.37 2.96811 15.1116C2.27735 14.8533 1.68148 14.3875 1.26066 13.7768C0.839841 13.1662 0.614258 12.4399 0.614258 11.6959C0.614258 10.9519 0.839841 10.2257 1.26066 9.615C1.68148 9.00433 2.27735 8.5385 2.96811 8.28017C3.65887 8.02184 4.41138 7.9834 5.12442 8.17002C5.83745 8.35664 6.47681 8.75937 6.95647 9.32403L16.6459 4.77842C16.5356 4.4239 16.4797 4.05442 16.48 3.68281ZM4.22041 9.51052C3.64662 9.51052 3.09634 9.74076 2.69061 10.1506C2.28488 10.5604 2.05695 11.1163 2.05695 11.6959C2.05695 12.2755 2.28488 12.8314 2.69061 13.2412C3.09634 13.651 3.64662 13.8813 4.22041 13.8813C4.7942 13.8813 5.34448 13.651 5.75021 13.2412C6.15594 12.8314 6.38387 12.2755 6.38387 11.6959C6.38387 11.1163 6.15594 10.5604 5.75021 10.1506C5.34448 9.74076 4.7942 9.51052 4.22041 9.51052ZM20.0858 17.5236C19.512 17.5236 18.9617 17.7539 18.556 18.1637C18.1503 18.5735 17.9223 19.1294 17.9223 19.709C17.9223 20.2886 18.1503 20.8445 18.556 21.2543C18.9617 21.6641 19.512 21.8944 20.0858 21.8944C20.6596 21.8944 21.2099 21.6641 21.6156 21.2543C22.0213 20.8445 22.2493 20.2886 22.2493 19.709C22.2493 19.1294 22.0213 18.5735 21.6156 18.1637C21.2099 17.7539 20.6596 17.5236 20.0858 17.5236Z" fill="white"/>
</g>
<defs>
<clipPath id="clip0_302_548">
<rect width="23.0769" height="23.3108" fill="white" transform="translate(0.614258 0.0405273)"/>
</clipPath>
</defs>
</svg>
