<svg width="60" height="61" viewBox="0 0 60 61" fill="none" xmlns="http://www.w3.org/2000/svg">
<ellipse cx="30" cy="30.6961" rx="30" ry="30.3041" fill="#2187ED"/>
<path d="M36.0848 20.4974C35.511 20.4974 34.9607 20.7277 34.555 21.1375C34.1493 21.5473 33.9214 22.1032 33.9214 22.6828C33.9214 23.2624 34.1493 23.8183 34.555 24.2281C34.9607 24.638 35.511 24.8682 36.0848 24.8682C36.6586 24.8682 37.2089 24.638 37.6146 24.2281C38.0203 23.8183 38.2483 23.2624 38.2483 22.6828C38.2483 22.1032 38.0203 21.5473 37.6146 21.1375C37.2089 20.7277 36.6586 20.4974 36.0848 20.4974ZM32.479 22.6828C32.4789 21.8282 32.7763 21.0008 33.3191 20.3453C33.862 19.6899 34.6157 19.2481 35.4484 19.0972C36.2811 18.9464 37.1399 19.0961 37.8743 19.5203C38.6088 19.9444 39.1723 20.6159 39.4661 21.4173C39.7599 22.2186 39.7655 23.0989 39.4817 23.904C39.198 24.7091 38.643 25.3877 37.914 25.8212C37.1849 26.2548 36.3281 26.4155 35.4936 26.2754C34.659 26.1352 33.8998 25.7031 33.3488 25.0547L23.6593 29.6003C23.8821 30.3134 23.8821 31.0784 23.6593 31.7915L33.3488 36.3371C33.9312 35.6528 34.7444 35.2114 35.6308 35.0982C36.5171 34.9851 37.4135 35.2084 38.1461 35.7248C38.8788 36.2412 39.3956 37.0139 39.5964 37.8933C39.7971 38.7727 39.6676 39.696 39.2328 40.4844C38.798 41.2727 38.089 41.87 37.2431 42.1604C36.3972 42.4508 35.4748 42.4136 34.6545 42.0562C33.8341 41.6987 33.1744 41.0463 32.8032 40.2255C32.4319 39.4046 32.3755 38.4738 32.6449 37.6134L22.9555 33.0678C22.4758 33.6324 21.8365 34.0352 21.1234 34.2218C20.4104 34.4084 19.6579 34.37 18.9671 34.1116C18.2764 33.8533 17.6805 33.3875 17.2597 32.7768C16.8389 32.1661 16.6133 31.4399 16.6133 30.6959C16.6133 29.9519 16.8389 29.2257 17.2597 28.615C17.6805 28.0043 18.2764 27.5385 18.9671 27.2802C19.6579 27.0218 20.4104 26.9834 21.1234 27.17C21.8365 27.3566 22.4758 27.7594 22.9555 28.324L32.6449 23.7784C32.5346 23.4239 32.4787 23.0544 32.479 22.6828V22.6828ZM20.2194 28.5105C19.6456 28.5105 19.0954 28.7408 18.6896 29.1506C18.2839 29.5604 18.056 30.1163 18.056 30.6959C18.056 31.2755 18.2839 31.8314 18.6896 32.2412C19.0954 32.651 19.6456 32.8813 20.2194 32.8813C20.7932 32.8813 21.3435 32.651 21.7492 32.2412C22.155 31.8314 22.3829 31.2755 22.3829 30.6959C22.3829 30.1163 22.155 29.5604 21.7492 29.1506C21.3435 28.7408 20.7932 28.5105 20.2194 28.5105ZM36.0848 36.5236C35.511 36.5236 34.9607 36.7539 34.555 37.1637C34.1493 37.5735 33.9214 38.1294 33.9214 38.709C33.9214 39.2886 34.1493 39.8445 34.555 40.2543C34.9607 40.6641 35.511 40.8944 36.0848 40.8944C36.6586 40.8944 37.2089 40.6641 37.6146 40.2543C38.0203 39.8445 38.2483 39.2886 38.2483 38.709C38.2483 38.1294 38.0203 37.5735 37.6146 37.1637C37.2089 36.7539 36.6586 36.5236 36.0848 36.5236Z" fill="white"/>
</svg>
