<svg width="756" height="504" viewBox="0 0 756 504" fill="none" xmlns="http://www.w3.org/2000/svg">
<g clip-path="url(#clip0_1048_2891)">
<path fill-rule="evenodd" clip-rule="evenodd" d="M253.635 233.734C240.979 229.786 222.624 227.347 202.201 227.434C187.064 227.498 146.892 236.466 133.064 247.377C146.892 258.171 187.064 266.798 202.201 266.734C223.392 266.644 242.356 263.854 255.038 259.534C217.437 301.412 254.435 334.868 264.664 355.81C263.285 327.209 284.614 290.012 311.735 268.057C322.894 259.023 335.553 251.926 349.063 246.768C333.394 241.639 318.713 233.978 305.983 223.781C279.939 202.918 258.578 167.324 258.815 139.835C246.66 162.201 217.623 194.419 253.635 233.734Z" fill="black" fill-opacity="0.1"/>
<path fill-rule="evenodd" clip-rule="evenodd" d="M501.909 262.765C514.565 266.655 532.919 269.009 553.341 268.827C568.478 268.693 608.649 259.538 622.476 248.563C608.649 237.833 568.478 229.392 553.341 229.527C532.151 229.715 513.188 232.593 500.506 236.972C538.105 194.919 501.108 161.636 490.88 140.741C492.259 169.336 470.93 206.631 443.811 228.712C432.651 237.798 419.993 244.954 406.484 250.175C422.153 255.231 436.833 262.824 449.562 272.962C475.605 293.703 496.966 329.198 496.728 356.689C508.884 334.266 537.92 301.913 501.909 262.765Z" fill="black" fill-opacity="0.1"/>
<path fill-rule="evenodd" clip-rule="evenodd" d="M365.171 130.449C361.465 117.796 359.378 99.4466 359.855 79.029C360.209 63.8955 369.946 23.7344 381.122 9.91065C391.651 23.7344 399.509 63.8955 399.155 79.029C398.66 100.214 395.507 119.173 390.944 131.852C433.542 94.2611 466.289 131.249 487.036 141.475C458.461 140.097 420.856 161.421 398.382 188.534C389.134 199.69 381.794 212.346 376.378 225.852C371.549 210.187 364.169 195.51 354.216 182.784C333.852 156.747 298.667 135.391 271.173 135.628C293.771 123.476 326.545 94.447 365.171 130.449Z" fill="black" fill-opacity="0.1"/>
<path fill-rule="evenodd" clip-rule="evenodd" d="M363.733 371.278C359.648 383.934 357.01 402.288 356.876 422.711C356.776 437.848 365.31 478.02 376.071 491.847C387.015 478.02 396.077 437.848 396.176 422.711C396.316 401.521 393.731 382.557 389.548 369.875C431.02 407.475 464.875 370.477 485.928 360.249C457.312 361.628 420.346 340.299 398.685 313.179C389.771 302.019 382.811 289.361 377.799 275.851C372.501 291.52 364.681 306.201 354.346 318.93C333.202 344.974 297.377 366.335 269.89 366.097C292.124 378.253 324.028 407.289 363.733 371.278Z" fill="black" fill-opacity="0.1"/>
</g>
<defs>
<clipPath id="clip0_1048_2891">
<rect width="756" height="504" fill="white" transform="matrix(1 0 0 -1 0 504)"/>
</clipPath>
</defs>
</svg>
