<svg width="431" height="495" viewBox="0 0 431 495" fill="none" xmlns="http://www.w3.org/2000/svg">
<path fill-rule="evenodd" clip-rule="evenodd" d="M257.507 158.796C260.673 151.001 262.7 139.668 262.772 127.035C262.826 117.671 256.105 92.7463 247.689 84.1012C239.176 92.5632 232.173 117.339 232.119 126.703C232.045 139.811 234.091 151.565 237.375 159.446C204.967 135.835 178.62 158.438 162.216 164.588C184.534 163.977 213.4 177.484 230.339 194.445C237.309 201.424 242.759 209.314 246.69 217.714C250.797 208.065 256.872 199.049 264.913 191.261C281.363 175.327 309.271 162.414 330.71 162.793C313.349 155.085 288.418 136.853 257.507 158.796Z" fill="#004581" fill-opacity="0.08"/>
<path fill-rule="evenodd" clip-rule="evenodd" d="M238.771 339.185C235.801 347.01 233.954 358.363 233.995 371C234.026 380.366 240.695 405.234 248.848 413.804C256.945 405.263 263.449 380.419 263.419 371.053C263.375 357.941 261.308 346.204 258.088 338.351C289.399 361.672 314.488 338.826 330.179 332.525C308.764 333.34 280.94 320.092 264.533 303.282C257.783 296.365 252.483 288.524 248.637 280.158C244.779 289.846 239.027 298.919 231.378 306.781C215.729 322.868 189.056 336.037 168.476 335.853C185.207 343.404 209.295 361.413 238.771 339.185Z" fill="#004581" fill-opacity="0.08"/>
<path fill-rule="evenodd" clip-rule="evenodd" d="M336.282 256.464C344.198 259.405 355.607 261.109 368.241 260.822C377.605 260.609 402.265 253.186 410.584 244.532C401.795 236.266 376.753 229.974 367.389 230.187C354.28 230.485 342.608 232.864 334.855 236.369C357.211 203.319 333.594 177.639 326.812 161.424C328.285 183.704 315.895 212.929 299.592 230.335C292.883 237.497 285.205 243.166 276.958 247.332C286.764 251.161 296.013 256.975 304.11 264.787C320.676 280.769 334.664 308.285 335.113 329.715C342.149 312.15 359.415 286.723 336.282 256.464Z" fill="#004581" fill-opacity="0.08"/>
<path fill-rule="evenodd" clip-rule="evenodd" d="M163.664 236.666C155.832 233.513 144.478 231.504 131.847 231.453C122.484 231.415 97.6461 238.179 89.1032 246.611C97.6646 255.112 122.518 262.075 131.88 262.113C144.986 262.166 156.713 260.099 164.553 256.802C141.333 289.256 164.245 315.571 170.589 331.969C169.712 309.647 182.872 280.751 199.627 263.78C206.522 256.797 214.345 251.333 222.696 247.387C213 243.296 203.914 237.234 196.032 229.204C179.906 212.777 166.664 184.885 166.788 163.44C159.289 180.819 141.357 205.785 163.664 236.666Z" fill="#004581" fill-opacity="0.08"/>
</svg>
