<svg width="15" height="15" viewBox="0 0 22 22" fill="none" xmlns="http://www.w3.org/2000/svg">
<g clip-path="url(#clip0_1066_1932)">
<path d="M8.92574 0.00548339C15.1741 0.00548339 15.2222 0.264629 15.996 0.847307C16.4064 1.15599 17.1809 1.36981 20.0096 1.55406C20.2148 1.56746 20.41 1.64618 20.541 1.80499C20.6011 1.87821 22.0146 3.93968 22.0146 7.2414C22.0146 10.495 21.003 11.978 20.9597 12.0467C20.898 12.1456 20.8121 12.2271 20.7102 12.2837C20.6082 12.3402 20.4936 12.3698 20.377 12.3698C18.0543 12.3698 14.8344 15.3347 12.6698 20.5102C12.2955 21.4053 12.2181 21.9941 10.8431 21.9941C10.0611 21.9941 9.18454 21.4342 8.75176 20.7157C7.86386 19.2479 8.31488 16.0953 8.73185 14.4106C7.31388 14.422 4.7471 14.4412 3.52575 14.4412C1.82694 14.4412 0.702555 13.4282 0.668523 11.9473C0.657158 11.4585 0.721461 10.8343 0.862742 10.5112C0.488742 10.1382 0.0064383 9.57581 -0.014509 8.85153C-0.040634 7.91653 0.571586 7.20464 0.96243 6.79627C0.872732 6.52436 0.693296 6.16376 0.710848 5.73268C0.753817 4.67256 1.57226 3.98952 2.08205 3.63308C2.03976 3.34295 2.00676 2.7957 2.09992 2.37255C2.46773 0.683681 4.94445 0.00546241 8.92576 0.00546241L8.92574 0.00548339ZM19.6449 2.94828C17.1809 2.74442 15.8637 2.46841 15.169 1.94557C14.6313 1.54063 14.7142 1.3801 8.92576 1.3801C7.16026 1.3801 3.7073 1.45366 3.44261 2.66572C3.33742 3.15041 3.84855 3.62683 3.85029 3.63061C3.98986 3.97504 3.83446 4.37932 3.49415 4.52816C3.48867 4.53091 2.11608 5.02245 2.08477 5.78972C2.06415 6.28023 2.40102 6.57483 2.40859 6.58722C2.60899 6.89795 2.53577 7.3242 2.2319 7.53597C2.22846 7.53872 1.3392 8.0777 1.36086 8.81264C1.3777 9.39633 2.14667 9.80713 2.17004 9.82086C2.34192 9.91917 2.46704 10.0893 2.50623 10.2839C2.54473 10.4781 2.50142 10.682 2.38076 10.8397C2.38076 10.8397 2.03117 11.3952 2.04389 11.9164C2.06898 13.0318 3.26865 13.0669 3.52614 13.0669C5.26036 13.0669 9.71428 13.0494 9.71428 13.0494C9.95457 13.0483 10.1625 13.1618 10.2918 13.3539C10.4207 13.5461 10.4303 13.7846 10.3547 14.0033C9.68302 15.9375 9.30797 18.9722 9.93087 20.0089C10.1144 20.3145 10.1564 20.6198 10.8439 20.6198C10.9391 20.6198 11.1659 20.5445 11.4024 19.9807C13.6997 14.4842 17.131 11.3048 19.9415 11.0181C20.1839 10.4654 20.6397 9.32001 20.6397 7.24172C20.6397 5.12042 19.9677 3.47938 19.6449 2.94828Z" fill="#004581"/>
</g>
<defs>
<clipPath id="clip0_1066_1932">
<rect width="22" height="22" fill="white" transform="translate(22 22) rotate(-180)"/>
</clipPath>
</defs>
</svg>
