<svg width="23" height="23" viewBox="0 0 23 23" fill="none" xmlns="http://www.w3.org/2000/svg">
<path d="M20.4897 2.80127L20.6133 3.00504C20.9798 3.60915 21.6746 5.33485 21.6746 7.54321C21.6746 9.70129 21.1996 10.9114 20.9381 11.509L20.8288 11.759L20.5573 11.7867C19.302 11.915 17.8387 12.7033 16.3871 14.1784C14.9422 15.6468 13.5424 17.7635 12.4138 20.4688L12.4136 20.4694C12.1534 21.0908 11.8084 21.3957 11.4245 21.3957C11.0116 21.3957 10.6932 21.3024 10.4559 21.0743C10.3482 20.9708 10.278 20.8585 10.2288 20.7713C10.1973 20.7155 10.1803 20.6829 10.166 20.6554C10.1502 20.6248 10.1375 20.6005 10.1117 20.5575C10.1117 20.5574 10.1117 20.5574 10.1117 20.5574L10.5127 20.317C9.89069 19.2797 10.2652 16.2435 10.936 14.3082L20.4897 2.80127ZM20.4897 2.80127L20.2522 2.78158M20.4897 2.80127L20.2522 2.78158M20.2522 2.78158C19.0283 2.68013 18.1091 2.56213 17.417 2.40907C16.7207 2.25509 16.2941 2.07374 16.0252 1.87098C16.0081 1.85811 15.9898 1.84375 15.97 1.82831C15.8693 1.74965 15.7325 1.64276 15.5498 1.55952C15.3279 1.45839 15.0523 1.39295 14.6475 1.34516C13.8458 1.25049 12.3917 1.21099 9.509 1.21099C8.62696 1.21099 7.29261 1.22886 6.13867 1.40471C5.56437 1.49222 5.00392 1.62312 4.558 1.82704C4.12723 2.02404 3.69036 2.34266 3.57645 2.86527L3.57632 2.86586M20.2522 2.78158L3.57632 2.86586M3.57632 2.86586C3.48432 3.29058 3.66589 3.66455 3.80233 3.87899C3.87606 3.99486 3.9527 4.08943 4.01028 4.15487C4.01457 4.15974 4.01877 4.16447 4.02286 4.16905C4.0334 4.26912 3.97789 4.36458 3.89711 4.39998L3.88576 4.40495M3.57632 2.86586L3.88576 4.40495M3.88576 4.40495L3.87469 4.41052L3.88576 4.40495ZM2.62324 7.16992C2.61376 7.15968 2.60309 7.14789 2.59155 7.13465C2.54569 7.08202 2.48636 7.00685 2.42818 6.9105C2.3119 6.71792 2.19515 6.43151 2.21012 6.07144C2.21013 6.07124 2.21014 6.07105 2.21015 6.07085L2.67731 6.09046L2.62324 7.16992ZM2.62324 7.16992C2.67241 7.27532 2.63592 7.39882 2.55656 7.45423L2.54388 7.46309L2.53183 7.47274C2.59711 7.42041 2.28723 7.62495 2.0439 7.8764C1.7953 8.1333 1.47069 8.56992 1.487 9.1284C1.487 9.12849 1.48701 9.12859 1.48701 9.12868L1.95438 9.11493C1.97065 9.67987 2.68982 10.0829 2.75786 10.1211C2.76015 10.1224 2.76171 10.1232 2.76247 10.1237L2.62324 7.16992ZM2.9729 11.1431C2.57696 10.8944 2.5769 10.8944 2.57685 10.8945L2.57673 10.8947L2.57647 10.8951L2.57585 10.8961L2.57422 10.8987L2.56952 10.9064L2.55472 10.9312C2.54264 10.9518 2.52628 10.9804 2.50711 11.0159C2.46897 11.0866 2.41872 11.1862 2.3688 11.3051C2.27303 11.5333 2.16046 11.8739 2.16903 12.2311M2.9729 11.1431L2.16903 12.2307C2.16903 12.2309 2.16903 12.231 2.16903 12.2311M2.9729 11.1431L2.57696 10.8944L2.58829 10.8763L2.60122 10.8594C2.63609 10.8137 2.65315 10.7479 2.63968 10.6785C2.62757 10.6192 2.58705 10.5621 2.52998 10.5294L2.52579 10.5269L2.9729 11.1431ZM2.16903 12.2311C2.17735 12.5988 2.28472 12.9063 2.46777 13.151M2.16903 12.2311L2.46777 13.151M2.46777 13.151C2.64747 13.3913 2.87997 13.5443 3.10022 13.6419M2.46777 13.151L3.10022 13.6419M3.10022 13.6419C3.52869 13.8316 3.97498 13.839 4.11672 13.839M3.10022 13.6419L4.11672 13.839M4.11672 13.839C4.98355 13.839 6.52927 13.8346 7.85757 13.8302M4.11672 13.839L7.85757 13.8302M7.85757 13.8302C8.52188 13.828 9.13205 13.8258 9.57614 13.8242M7.85757 13.8302L9.57614 13.8242M9.57614 13.8242L10.1037 13.8222M9.57614 13.8242L10.1037 13.8222M10.1037 13.8222L10.2479 13.8216M10.1037 13.8222L10.2479 13.8216M10.2479 13.8216L10.2855 13.8215M10.2479 13.8216L10.2855 13.8215M10.2855 13.8215L10.2951 13.8214M10.2855 13.8215L10.2951 13.8214M10.2951 13.8214L10.2975 13.8214M10.2951 13.8214L10.2975 13.8214M10.2975 13.8214L10.2981 13.8214M10.2975 13.8214L10.2981 13.8214M10.2981 13.8214H10.2982M10.2981 13.8214H10.2982M10.2982 13.8214L10.2964 13.3538L10.2982 13.8214ZM16.288 1.51877L16.2882 1.51893C16.5745 1.73468 16.9499 1.88359 17.5796 2.00488C18.2073 2.1258 19.131 2.22677 20.5472 2.31919C20.6562 2.32633 20.717 2.36441 20.7467 2.39999C20.7463 2.39958 20.7478 2.40184 20.7511 2.40673C20.792 2.46829 21.1101 2.94663 21.4303 3.77972C21.774 4.67382 22.1125 5.95827 22.1125 7.54288C22.1125 10.6345 21.1732 12.0383 21.132 12.0999C21.1313 12.1009 21.1309 12.1016 21.1307 12.1018L21.1297 12.1034C21.11 12.1351 21.0826 12.161 21.0503 12.179C21.0179 12.197 20.9816 12.2064 20.9448 12.2064H20.9447C19.6 12.2064 18.1025 13.0523 16.7035 14.4768C15.29 15.916 13.9156 18.0055 12.8165 20.6384L12.8165 20.6384C12.7703 20.749 12.7333 20.8424 12.6997 20.9272C12.6556 21.0385 12.6174 21.1351 12.5717 21.2369C12.4987 21.3996 12.4355 21.5049 12.366 21.5807C12.2541 21.7027 12.0471 21.8356 11.4238 21.8356C10.835 21.8356 10.0991 21.3873 9.73596 20.7832L9.73551 20.7825C9.36935 20.176 9.25042 19.1441 9.30372 17.9726C9.35584 16.8271 9.56663 15.6482 9.76928 14.8279L9.91368 14.2434L9.3116 14.2482C7.89484 14.2596 5.33371 14.2789 4.11633 14.2789C3.36054 14.2789 2.77236 14.054 2.37559 13.7039C1.98259 13.3571 1.74464 12.8595 1.73045 12.2405L1.73044 12.2404C1.72529 12.0185 1.7374 11.7631 1.76676 11.5287C1.79722 11.2855 1.8419 11.1012 1.88549 11.0013L2.01307 10.709L1.78743 10.4835C1.42003 10.1165 1.06371 9.66843 1.04828 9.14081C1.02802 8.41417 1.50622 7.82706 1.8946 7.4205L2.08834 7.21769L2.00062 6.95129C1.9726 6.86619 1.944 6.7883 1.91692 6.71458C1.83229 6.48414 1.76261 6.2944 1.77245 6.05238L1.77245 6.05229C1.80561 5.23278 2.44349 4.66549 2.94287 4.31566L3.17876 4.15042L3.1373 3.8654C3.09866 3.59979 3.07348 3.11611 3.14912 2.77187L3.14935 2.77085C3.28143 2.16323 3.79925 1.65681 4.89321 1.29803C5.98381 0.940338 7.53735 0.770823 9.50898 0.770823C12.636 0.770823 14.1711 0.836611 15.0179 0.967819C15.4325 1.03208 15.6545 1.10836 15.8072 1.18541C15.9383 1.25156 16.03 1.32177 16.1745 1.43235C16.2089 1.4587 16.2463 1.48734 16.288 1.51877ZM21.5265 12.3506L21.5266 12.3507L21.5265 12.3506ZM2.66029 7.20865C2.66023 7.2086 2.66013 7.20849 2.65998 7.20833L2.66011 7.20847L2.66029 7.20865Z" fill="#004581" fill-opacity="0.55" stroke="#004581" stroke-width="0.935156"/>
</svg>
